<mxfile host="app.diagrams.net" modified="2023-04-19T21:11:28.959Z" agent="Mozilla/5.0 (Windows NT 10.0; Win64; x64) AppleWebKit/537.36 (KHTML, like Gecko) Chrome/111.0.0.0 Safari/537.36 OPR/97.0.0.0" etag="oC5lWH1oHVFfdDSNAsUv" version="21.2.1" type="github" pages="3">
  <diagram name="exercício 1" id="PbUHw5uf5hIeHMgpwFgf">
    <mxGraphModel dx="1009" dy="573" grid="1" gridSize="10" guides="1" tooltips="1" connect="1" arrows="1" fold="1" page="1" pageScale="1" pageWidth="827" pageHeight="1169" math="0" shadow="0">
      <root>
        <mxCell id="0" />
        <mxCell id="1" parent="0" />
        <mxCell id="KCNv2LSort8fkqwQyA7e-2" value="marca" style="rounded=0;whiteSpace=wrap;html=1;" parent="1" vertex="1">
          <mxGeometry x="200" y="40" width="120" height="60" as="geometry" />
        </mxCell>
        <mxCell id="KCNv2LSort8fkqwQyA7e-5" value="" style="endArrow=none;html=1;rounded=0;" parent="1" edge="1">
          <mxGeometry width="50" height="50" relative="1" as="geometry">
            <mxPoint x="320" y="70" as="sourcePoint" />
            <mxPoint x="370" y="70" as="targetPoint" />
            <Array as="points" />
          </mxGeometry>
        </mxCell>
        <mxCell id="KCNv2LSort8fkqwQyA7e-6" value="pertence" style="shape=rhombus;double=1;perimeter=rhombusPerimeter;whiteSpace=wrap;html=1;align=center;" parent="1" vertex="1">
          <mxGeometry x="370" y="40" width="120" height="60" as="geometry" />
        </mxCell>
        <mxCell id="KCNv2LSort8fkqwQyA7e-7" value="" style="endArrow=none;html=1;rounded=0;" parent="1" edge="1">
          <mxGeometry width="50" height="50" relative="1" as="geometry">
            <mxPoint x="490" y="69.82999999999998" as="sourcePoint" />
            <mxPoint x="540" y="69.82999999999998" as="targetPoint" />
            <Array as="points" />
          </mxGeometry>
        </mxCell>
        <mxCell id="KCNv2LSort8fkqwQyA7e-8" value="modelo" style="rounded=0;whiteSpace=wrap;html=1;" parent="1" vertex="1">
          <mxGeometry x="540" y="40" width="120" height="60" as="geometry" />
        </mxCell>
        <mxCell id="KCNv2LSort8fkqwQyA7e-9" value="" style="endArrow=none;html=1;rounded=0;entryX=0.5;entryY=1;entryDx=0;entryDy=0;" parent="1" target="KCNv2LSort8fkqwQyA7e-8" edge="1">
          <mxGeometry width="50" height="50" relative="1" as="geometry">
            <mxPoint x="600" y="160" as="sourcePoint" />
            <mxPoint x="470" y="110" as="targetPoint" />
            <Array as="points" />
          </mxGeometry>
        </mxCell>
        <mxCell id="KCNv2LSort8fkqwQyA7e-13" value="veículos" style="rounded=0;whiteSpace=wrap;html=1;" parent="1" vertex="1">
          <mxGeometry x="540" y="280" width="120" height="60" as="geometry" />
        </mxCell>
        <mxCell id="KCNv2LSort8fkqwQyA7e-14" value="pertence" style="shape=rhombus;double=1;perimeter=rhombusPerimeter;whiteSpace=wrap;html=1;align=center;" parent="1" vertex="1">
          <mxGeometry x="540" y="160" width="120" height="60" as="geometry" />
        </mxCell>
        <mxCell id="KCNv2LSort8fkqwQyA7e-15" value="" style="endArrow=none;html=1;rounded=0;exitX=0.5;exitY=1;exitDx=0;exitDy=0;" parent="1" source="KCNv2LSort8fkqwQyA7e-14" edge="1">
          <mxGeometry width="50" height="50" relative="1" as="geometry">
            <mxPoint x="605" y="270" as="sourcePoint" />
            <mxPoint x="600" y="280" as="targetPoint" />
            <Array as="points">
              <mxPoint x="600" y="240" />
            </Array>
          </mxGeometry>
        </mxCell>
        <mxCell id="KCNv2LSort8fkqwQyA7e-16" value="quilometragem" style="text;whiteSpace=wrap;html=1;" parent="1" vertex="1">
          <mxGeometry x="700" y="260" width="86" height="20" as="geometry" />
        </mxCell>
        <mxCell id="KCNv2LSort8fkqwQyA7e-18" value="" style="endArrow=none;html=1;rounded=0;entryX=1;entryY=0.5;entryDx=0;entryDy=0;exitX=0;exitY=0.5;exitDx=0;exitDy=0;" parent="1" source="KCNv2LSort8fkqwQyA7e-20" target="KCNv2LSort8fkqwQyA7e-13" edge="1">
          <mxGeometry width="50" height="50" relative="1" as="geometry">
            <mxPoint x="690" y="320" as="sourcePoint" />
            <mxPoint x="700" y="350" as="targetPoint" />
            <Array as="points">
              <mxPoint x="680" y="310" />
            </Array>
          </mxGeometry>
        </mxCell>
        <mxCell id="KCNv2LSort8fkqwQyA7e-20" value="" style="ellipse;whiteSpace=wrap;html=1;aspect=fixed;" parent="1" vertex="1">
          <mxGeometry x="690" y="305" width="10" height="10" as="geometry" />
        </mxCell>
        <mxCell id="KCNv2LSort8fkqwQyA7e-21" value="" style="ellipse;whiteSpace=wrap;html=1;aspect=fixed;" parent="1" vertex="1">
          <mxGeometry x="690" y="320" width="10" height="10" as="geometry" />
        </mxCell>
        <mxCell id="KCNv2LSort8fkqwQyA7e-22" value="" style="endArrow=none;html=1;rounded=0;entryX=1;entryY=0.75;entryDx=0;entryDy=0;exitX=0;exitY=0.5;exitDx=0;exitDy=0;" parent="1" source="KCNv2LSort8fkqwQyA7e-21" target="KCNv2LSort8fkqwQyA7e-13" edge="1">
          <mxGeometry width="50" height="50" relative="1" as="geometry">
            <mxPoint x="700" y="325" as="sourcePoint" />
            <mxPoint x="670" y="320" as="targetPoint" />
            <Array as="points">
              <mxPoint x="690" y="325" />
              <mxPoint x="680" y="325" />
            </Array>
          </mxGeometry>
        </mxCell>
        <mxCell id="KCNv2LSort8fkqwQyA7e-23" value="" style="ellipse;whiteSpace=wrap;html=1;aspect=fixed;labelBackgroundColor=#000000;fillColor=#000000;" parent="1" vertex="1">
          <mxGeometry x="690" y="290" width="10" height="10" as="geometry" />
        </mxCell>
        <mxCell id="KCNv2LSort8fkqwQyA7e-24" value="" style="endArrow=none;html=1;rounded=0;entryX=1;entryY=0.75;entryDx=0;entryDy=0;exitX=0;exitY=0.5;exitDx=0;exitDy=0;" parent="1" source="KCNv2LSort8fkqwQyA7e-23" edge="1">
          <mxGeometry width="50" height="50" relative="1" as="geometry">
            <mxPoint x="700" y="295" as="sourcePoint" />
            <mxPoint x="660" y="295" as="targetPoint" />
            <Array as="points">
              <mxPoint x="690" y="295" />
              <mxPoint x="680" y="295" />
            </Array>
          </mxGeometry>
        </mxCell>
        <mxCell id="KCNv2LSort8fkqwQyA7e-25" value="&lt;span style=&quot;color: rgb(0, 0, 0); font-family: Helvetica; font-size: 12px; font-style: normal; font-variant-ligatures: normal; font-variant-caps: normal; font-weight: 400; letter-spacing: normal; orphans: 2; text-align: left; text-indent: 0px; text-transform: none; widows: 2; word-spacing: 0px; -webkit-text-stroke-width: 0px; background-color: rgb(251, 251, 251); text-decoration-thickness: initial; text-decoration-style: initial; text-decoration-color: initial; float: none; display: inline !important;&quot;&gt;chassi&lt;/span&gt;" style="text;whiteSpace=wrap;html=1;" parent="1" vertex="1">
          <mxGeometry x="700" y="280" width="40" height="20" as="geometry" />
        </mxCell>
        <mxCell id="KCNv2LSort8fkqwQyA7e-26" value="&lt;span style=&quot;color: rgb(0, 0, 0); font-family: Helvetica; font-size: 12px; font-style: normal; font-variant-ligatures: normal; font-variant-caps: normal; font-weight: 400; letter-spacing: normal; orphans: 2; text-align: left; text-indent: 0px; text-transform: none; widows: 2; word-spacing: 0px; -webkit-text-stroke-width: 0px; background-color: rgb(251, 251, 251); text-decoration-thickness: initial; text-decoration-style: initial; text-decoration-color: initial; float: none; display: inline !important;&quot;&gt;placa&lt;/span&gt;" style="text;whiteSpace=wrap;html=1;" parent="1" vertex="1">
          <mxGeometry x="700" y="295" width="30" height="25" as="geometry" />
        </mxCell>
        <mxCell id="KCNv2LSort8fkqwQyA7e-27" value="&lt;span style=&quot;color: rgb(0, 0, 0); font-family: Helvetica; font-size: 12px; font-style: normal; font-variant-ligatures: normal; font-variant-caps: normal; font-weight: 400; letter-spacing: normal; orphans: 2; text-align: left; text-indent: 0px; text-transform: none; widows: 2; word-spacing: 0px; -webkit-text-stroke-width: 0px; background-color: rgb(251, 251, 251); text-decoration-thickness: initial; text-decoration-style: initial; text-decoration-color: initial; float: none; display: inline !important;&quot;&gt;cor&lt;/span&gt;" style="text;whiteSpace=wrap;html=1;" parent="1" vertex="1">
          <mxGeometry x="700" y="310" width="20" height="20" as="geometry" />
        </mxCell>
        <mxCell id="KCNv2LSort8fkqwQyA7e-28" value="&lt;span style=&quot;color: rgb(0, 0, 0); font-family: Helvetica; font-size: 12px; font-style: normal; font-variant-ligatures: normal; font-variant-caps: normal; font-weight: 400; letter-spacing: normal; orphans: 2; text-align: left; text-indent: 0px; text-transform: none; widows: 2; word-spacing: 0px; -webkit-text-stroke-width: 0px; background-color: rgb(251, 251, 251); text-decoration-thickness: initial; text-decoration-style: initial; text-decoration-color: initial; float: none; display: inline !important;&quot;&gt;ano de fabricação&lt;/span&gt;" style="text;whiteSpace=wrap;html=1;" parent="1" vertex="1">
          <mxGeometry x="700" y="325" width="100" height="20" as="geometry" />
        </mxCell>
        <mxCell id="KCNv2LSort8fkqwQyA7e-29" value="" style="ellipse;whiteSpace=wrap;html=1;aspect=fixed;" parent="1" vertex="1">
          <mxGeometry x="690" y="335" width="10" height="10" as="geometry" />
        </mxCell>
        <mxCell id="KCNv2LSort8fkqwQyA7e-30" value="" style="endArrow=none;html=1;rounded=0;entryX=1;entryY=0.75;entryDx=0;entryDy=0;exitX=0;exitY=0.5;exitDx=0;exitDy=0;" parent="1" source="KCNv2LSort8fkqwQyA7e-29" edge="1">
          <mxGeometry width="50" height="50" relative="1" as="geometry">
            <mxPoint x="700" y="340" as="sourcePoint" />
            <mxPoint x="660" y="340" as="targetPoint" />
            <Array as="points">
              <mxPoint x="690" y="340" />
              <mxPoint x="680" y="340" />
            </Array>
          </mxGeometry>
        </mxCell>
        <mxCell id="KCNv2LSort8fkqwQyA7e-56" value="" style="endArrow=none;html=1;rounded=0;exitX=1;exitY=0;exitDx=0;exitDy=0;" parent="1" source="KCNv2LSort8fkqwQyA7e-13" target="KCNv2LSort8fkqwQyA7e-55" edge="1">
          <mxGeometry width="50" height="50" relative="1" as="geometry">
            <mxPoint x="660" y="280" as="sourcePoint" />
            <mxPoint x="690" y="280" as="targetPoint" />
            <Array as="points" />
          </mxGeometry>
        </mxCell>
        <mxCell id="KCNv2LSort8fkqwQyA7e-55" value="" style="ellipse;whiteSpace=wrap;html=1;aspect=fixed;" parent="1" vertex="1">
          <mxGeometry x="690" y="275" width="10" height="10" as="geometry" />
        </mxCell>
        <mxCell id="KCNv2LSort8fkqwQyA7e-57" value="vende" style="shape=rhombus;double=1;perimeter=rhombusPerimeter;whiteSpace=wrap;html=1;align=center;" parent="1" vertex="1">
          <mxGeometry x="370" y="290" width="120" height="60" as="geometry" />
        </mxCell>
        <mxCell id="KCNv2LSort8fkqwQyA7e-59" value="" style="endArrow=none;html=1;rounded=0;" parent="1" edge="1">
          <mxGeometry width="50" height="50" relative="1" as="geometry">
            <mxPoint x="490" y="320" as="sourcePoint" />
            <mxPoint x="540" y="320" as="targetPoint" />
            <Array as="points" />
          </mxGeometry>
        </mxCell>
        <mxCell id="KCNv2LSort8fkqwQyA7e-61" value="" style="endArrow=none;html=1;rounded=0;" parent="1" edge="1">
          <mxGeometry width="50" height="50" relative="1" as="geometry">
            <mxPoint x="320" y="319.62" as="sourcePoint" />
            <mxPoint x="370" y="319.62" as="targetPoint" />
            <Array as="points" />
          </mxGeometry>
        </mxCell>
        <mxCell id="KCNv2LSort8fkqwQyA7e-63" value="comprador" style="rounded=0;whiteSpace=wrap;html=1;" parent="1" vertex="1">
          <mxGeometry x="200" y="290" width="120" height="60" as="geometry" />
        </mxCell>
        <mxCell id="KCNv2LSort8fkqwQyA7e-68" value="" style="ellipse;whiteSpace=wrap;html=1;aspect=fixed;labelBackgroundColor=#000000;fillColor=#000000;" parent="1" vertex="1">
          <mxGeometry x="690" y="65" width="10" height="10" as="geometry" />
        </mxCell>
        <mxCell id="KCNv2LSort8fkqwQyA7e-69" value="" style="endArrow=none;html=1;rounded=0;entryX=1;entryY=0.75;entryDx=0;entryDy=0;exitX=0;exitY=0.5;exitDx=0;exitDy=0;" parent="1" source="KCNv2LSort8fkqwQyA7e-68" edge="1">
          <mxGeometry width="50" height="50" relative="1" as="geometry">
            <mxPoint x="700" y="70" as="sourcePoint" />
            <mxPoint x="660" y="70" as="targetPoint" />
            <Array as="points">
              <mxPoint x="690" y="70" />
              <mxPoint x="680" y="70" />
            </Array>
          </mxGeometry>
        </mxCell>
        <mxCell id="KCNv2LSort8fkqwQyA7e-70" value="" style="ellipse;whiteSpace=wrap;html=1;aspect=fixed;labelBackgroundColor=#000000;fillColor=#000000;" parent="1" vertex="1">
          <mxGeometry x="150" y="75" width="10" height="10" as="geometry" />
        </mxCell>
        <mxCell id="KCNv2LSort8fkqwQyA7e-71" value="" style="endArrow=none;html=1;rounded=0;" parent="1" edge="1">
          <mxGeometry width="50" height="50" relative="1" as="geometry">
            <mxPoint x="180" y="80" as="sourcePoint" />
            <mxPoint x="160" y="80" as="targetPoint" />
            <Array as="points">
              <mxPoint x="180" y="80" />
              <mxPoint x="200" y="80" />
            </Array>
          </mxGeometry>
        </mxCell>
        <mxCell id="KCNv2LSort8fkqwQyA7e-72" value="cadastro marca" style="text;whiteSpace=wrap;html=1;" parent="1" vertex="1">
          <mxGeometry x="60" y="65" width="110" height="40" as="geometry" />
        </mxCell>
        <mxCell id="KCNv2LSort8fkqwQyA7e-76" value="cadastro modelo" style="text;whiteSpace=wrap;html=1;" parent="1" vertex="1">
          <mxGeometry x="710" y="55" width="110" height="20" as="geometry" />
        </mxCell>
        <mxCell id="KCNv2LSort8fkqwQyA7e-79" value="" style="endArrow=none;html=1;rounded=0;" parent="1" edge="1">
          <mxGeometry width="50" height="50" relative="1" as="geometry">
            <mxPoint x="429.8" y="380" as="sourcePoint" />
            <mxPoint x="429.8" y="350" as="targetPoint" />
          </mxGeometry>
        </mxCell>
        <mxCell id="KCNv2LSort8fkqwQyA7e-80" value="" style="ellipse;whiteSpace=wrap;html=1;aspect=fixed;" parent="1" vertex="1">
          <mxGeometry x="425" y="370" width="10" height="10" as="geometry" />
        </mxCell>
        <mxCell id="KCNv2LSort8fkqwQyA7e-81" value="&lt;span style=&quot;color: rgb(0, 0, 0); font-family: Helvetica; font-size: 12px; font-style: normal; font-variant-ligatures: normal; font-variant-caps: normal; font-weight: 400; letter-spacing: normal; orphans: 2; text-align: left; text-indent: 0px; text-transform: none; widows: 2; word-spacing: 0px; -webkit-text-stroke-width: 0px; background-color: rgb(251, 251, 251); text-decoration-thickness: initial; text-decoration-style: initial; text-decoration-color: initial; float: none; display: inline !important;&quot;&gt;data da&amp;nbsp;&lt;/span&gt;&lt;span style=&quot;color: rgb(0, 0, 0); font-family: Helvetica; font-size: 12px; font-style: normal; font-variant-ligatures: normal; font-variant-caps: normal; font-weight: 400; letter-spacing: normal; orphans: 2; text-align: left; text-indent: 0px; text-transform: none; widows: 2; word-spacing: 0px; -webkit-text-stroke-width: 0px; background-color: rgb(251, 251, 251); text-decoration-thickness: initial; text-decoration-style: initial; text-decoration-color: initial; float: none; display: inline !important;&quot;&gt;venda&lt;/span&gt;" style="text;whiteSpace=wrap;html=1;" parent="1" vertex="1">
          <mxGeometry x="435" y="365" width="100" height="20" as="geometry" />
        </mxCell>
        <mxCell id="KCNv2LSort8fkqwQyA7e-85" value="&lt;span style=&quot;color: rgb(0, 0, 0); font-family: Helvetica; font-size: 12px; font-style: normal; font-variant-ligatures: normal; font-variant-caps: normal; font-weight: 400; letter-spacing: normal; orphans: 2; text-align: left; text-indent: 0px; text-transform: none; widows: 2; word-spacing: 0px; -webkit-text-stroke-width: 0px; background-color: rgb(251, 251, 251); text-decoration-thickness: initial; text-decoration-style: initial; text-decoration-color: initial; float: none; display: inline !important;&quot;&gt;valor da venda&lt;/span&gt;" style="text;whiteSpace=wrap;html=1;" parent="1" vertex="1">
          <mxGeometry x="315" y="360" width="110" height="25" as="geometry" />
        </mxCell>
        <mxCell id="KCNv2LSort8fkqwQyA7e-87" value="" style="ellipse;whiteSpace=wrap;html=1;aspect=fixed;" parent="1" vertex="1">
          <mxGeometry x="400" y="370" width="10" height="10" as="geometry" />
        </mxCell>
        <mxCell id="KCNv2LSort8fkqwQyA7e-89" value="" style="endArrow=none;html=1;rounded=0;entryX=0.384;entryY=0.908;entryDx=0;entryDy=0;entryPerimeter=0;exitX=0.5;exitY=0;exitDx=0;exitDy=0;" parent="1" source="KCNv2LSort8fkqwQyA7e-87" target="KCNv2LSort8fkqwQyA7e-57" edge="1">
          <mxGeometry width="50" height="50" relative="1" as="geometry">
            <mxPoint x="439.8" y="390" as="sourcePoint" />
            <mxPoint x="439.8" y="360" as="targetPoint" />
            <Array as="points" />
          </mxGeometry>
        </mxCell>
        <mxCell id="KCNv2LSort8fkqwQyA7e-91" value="" style="endArrow=none;html=1;rounded=0;entryX=0;entryY=0.25;entryDx=0;entryDy=0;exitX=0;exitY=0.5;exitDx=0;exitDy=0;" parent="1" source="KCNv2LSort8fkqwQyA7e-92" target="KCNv2LSort8fkqwQyA7e-63" edge="1">
          <mxGeometry width="50" height="50" relative="1" as="geometry">
            <mxPoint x="180" y="315" as="sourcePoint" />
            <mxPoint x="150" y="305" as="targetPoint" />
            <Array as="points">
              <mxPoint x="170" y="305" />
            </Array>
          </mxGeometry>
        </mxCell>
        <mxCell id="KCNv2LSort8fkqwQyA7e-92" value="" style="ellipse;whiteSpace=wrap;html=1;aspect=fixed;fillColor=#000000;" parent="1" vertex="1">
          <mxGeometry x="160" y="300" width="10" height="10" as="geometry" />
        </mxCell>
        <mxCell id="KCNv2LSort8fkqwQyA7e-93" value="&lt;span style=&quot;color: rgb(0, 0, 0); font-family: Helvetica; font-size: 12px; font-style: normal; font-variant-ligatures: normal; font-variant-caps: normal; font-weight: 400; letter-spacing: normal; orphans: 2; text-align: left; text-indent: 0px; text-transform: none; widows: 2; word-spacing: 0px; -webkit-text-stroke-width: 0px; background-color: rgb(251, 251, 251); text-decoration-thickness: initial; text-decoration-style: initial; text-decoration-color: initial; float: none; display: inline !important;&quot;&gt;CPF&lt;/span&gt;" style="text;whiteSpace=wrap;html=1;" parent="1" vertex="1">
          <mxGeometry x="130" y="290" width="30" height="20" as="geometry" />
        </mxCell>
        <mxCell id="KCNv2LSort8fkqwQyA7e-94" value="" style="endArrow=none;html=1;rounded=0;entryX=0;entryY=0.25;entryDx=0;entryDy=0;" parent="1" edge="1">
          <mxGeometry width="50" height="50" relative="1" as="geometry">
            <mxPoint x="170" y="325" as="sourcePoint" />
            <mxPoint x="200" y="324.77" as="targetPoint" />
            <Array as="points">
              <mxPoint x="170" y="324.77" />
            </Array>
          </mxGeometry>
        </mxCell>
        <mxCell id="KCNv2LSort8fkqwQyA7e-95" value="" style="ellipse;whiteSpace=wrap;html=1;aspect=fixed;" parent="1" vertex="1">
          <mxGeometry x="160" y="320" width="10" height="10" as="geometry" />
        </mxCell>
        <mxCell id="KCNv2LSort8fkqwQyA7e-96" value="&lt;span style=&quot;color: rgb(0, 0, 0); font-family: Helvetica; font-size: 12px; font-style: normal; font-variant-ligatures: normal; font-variant-caps: normal; font-weight: 400; letter-spacing: normal; orphans: 2; text-align: left; text-indent: 0px; text-transform: none; widows: 2; word-spacing: 0px; -webkit-text-stroke-width: 0px; background-color: rgb(251, 251, 251); text-decoration-thickness: initial; text-decoration-style: initial; text-decoration-color: initial; float: none; display: inline !important;&quot;&gt;nome&lt;/span&gt;" style="text;whiteSpace=wrap;html=1;" parent="1" vertex="1">
          <mxGeometry x="125" y="310" width="35" height="20" as="geometry" />
        </mxCell>
        <mxCell id="KCNv2LSort8fkqwQyA7e-97" value="&lt;span style=&quot;color: rgb(0, 0, 0); font-family: Helvetica; font-size: 12px; font-style: normal; font-variant-ligatures: normal; font-variant-caps: normal; font-weight: 400; letter-spacing: normal; orphans: 2; text-align: left; text-indent: 0px; text-transform: none; widows: 2; word-spacing: 0px; -webkit-text-stroke-width: 0px; background-color: rgb(251, 251, 251); text-decoration-thickness: initial; text-decoration-style: initial; text-decoration-color: initial; float: none; display: inline !important;&quot;&gt;estado civil&lt;/span&gt;" style="text;whiteSpace=wrap;html=1;" parent="1" vertex="1">
          <mxGeometry x="90" y="330" width="70" height="20" as="geometry" />
        </mxCell>
        <mxCell id="KCNv2LSort8fkqwQyA7e-98" value="" style="endArrow=none;html=1;rounded=0;entryX=0;entryY=0.25;entryDx=0;entryDy=0;" parent="1" edge="1">
          <mxGeometry width="50" height="50" relative="1" as="geometry">
            <mxPoint x="170" y="345" as="sourcePoint" />
            <mxPoint x="200" y="344.77" as="targetPoint" />
            <Array as="points">
              <mxPoint x="170" y="344.77" />
            </Array>
          </mxGeometry>
        </mxCell>
        <mxCell id="KCNv2LSort8fkqwQyA7e-99" value="" style="ellipse;whiteSpace=wrap;html=1;aspect=fixed;" parent="1" vertex="1">
          <mxGeometry x="160" y="340" width="10" height="10" as="geometry" />
        </mxCell>
        <mxCell id="KCNv2LSort8fkqwQyA7e-100" value="cônjuge" style="ellipse;whiteSpace=wrap;html=1;" parent="1" vertex="1">
          <mxGeometry x="225" y="400" width="70" height="40" as="geometry" />
        </mxCell>
        <mxCell id="KCNv2LSort8fkqwQyA7e-101" value="" style="endArrow=none;html=1;rounded=0;exitX=0.5;exitY=0;exitDx=0;exitDy=0;entryX=0.5;entryY=1;entryDx=0;entryDy=0;" parent="1" source="KCNv2LSort8fkqwQyA7e-100" target="KCNv2LSort8fkqwQyA7e-63" edge="1">
          <mxGeometry width="50" height="50" relative="1" as="geometry">
            <mxPoint x="350" y="250" as="sourcePoint" />
            <mxPoint x="400" y="200" as="targetPoint" />
          </mxGeometry>
        </mxCell>
        <mxCell id="KCNv2LSort8fkqwQyA7e-102" value="" style="endArrow=none;html=1;rounded=0;entryX=0;entryY=0.5;entryDx=0;entryDy=0;exitX=0;exitY=0.5;exitDx=0;exitDy=0;" parent="1" source="KCNv2LSort8fkqwQyA7e-103" target="KCNv2LSort8fkqwQyA7e-100" edge="1">
          <mxGeometry width="50" height="50" relative="1" as="geometry">
            <mxPoint x="190" y="325" as="sourcePoint" />
            <mxPoint x="210" y="315" as="targetPoint" />
            <Array as="points" />
          </mxGeometry>
        </mxCell>
        <mxCell id="KCNv2LSort8fkqwQyA7e-103" value="" style="ellipse;whiteSpace=wrap;html=1;aspect=fixed;fillColor=#000000;" parent="1" vertex="1">
          <mxGeometry x="190" y="415" width="10" height="10" as="geometry" />
        </mxCell>
        <mxCell id="KCNv2LSort8fkqwQyA7e-105" value="&lt;span style=&quot;color: rgb(0, 0, 0); font-family: Helvetica; font-size: 12px; font-style: normal; font-variant-ligatures: normal; font-variant-caps: normal; font-weight: 400; letter-spacing: normal; orphans: 2; text-align: left; text-indent: 0px; text-transform: none; widows: 2; word-spacing: 0px; -webkit-text-stroke-width: 0px; background-color: rgb(251, 251, 251); text-decoration-thickness: initial; text-decoration-style: initial; text-decoration-color: initial; float: none; display: inline !important;&quot;&gt;CPF&lt;/span&gt;" style="text;whiteSpace=wrap;html=1;" parent="1" vertex="1">
          <mxGeometry x="160" y="405" width="30" height="20" as="geometry" />
        </mxCell>
        <mxCell id="KCNv2LSort8fkqwQyA7e-106" value="" style="ellipse;whiteSpace=wrap;html=1;aspect=fixed;" parent="1" vertex="1">
          <mxGeometry x="255" y="470" width="10" height="10" as="geometry" />
        </mxCell>
        <mxCell id="KCNv2LSort8fkqwQyA7e-107" value="" style="endArrow=none;html=1;rounded=0;entryX=0.5;entryY=1;entryDx=0;entryDy=0;exitX=0.5;exitY=0;exitDx=0;exitDy=0;" parent="1" source="KCNv2LSort8fkqwQyA7e-106" target="KCNv2LSort8fkqwQyA7e-100" edge="1">
          <mxGeometry width="50" height="50" relative="1" as="geometry">
            <mxPoint x="180" y="335" as="sourcePoint" />
            <mxPoint x="210" y="334.77" as="targetPoint" />
            <Array as="points" />
          </mxGeometry>
        </mxCell>
        <mxCell id="KCNv2LSort8fkqwQyA7e-108" value="&lt;span style=&quot;color: rgb(0, 0, 0); font-family: Helvetica; font-size: 12px; font-style: normal; font-variant-ligatures: normal; font-variant-caps: normal; font-weight: 400; letter-spacing: normal; orphans: 2; text-align: left; text-indent: 0px; text-transform: none; widows: 2; word-spacing: 0px; -webkit-text-stroke-width: 0px; background-color: rgb(251, 251, 251); text-decoration-thickness: initial; text-decoration-style: initial; text-decoration-color: initial; float: none; display: inline !important;&quot;&gt;nome&lt;/span&gt;" style="text;whiteSpace=wrap;html=1;" parent="1" vertex="1">
          <mxGeometry x="270" y="460" width="35" height="20" as="geometry" />
        </mxCell>
      </root>
    </mxGraphModel>
  </diagram>
  <diagram name="exercício 2" id="KHCtRHHf1l2k4oDlnoli">
    <mxGraphModel dx="1009" dy="573" grid="1" gridSize="10" guides="1" tooltips="1" connect="1" arrows="1" fold="1" page="1" pageScale="1" pageWidth="827" pageHeight="1169" math="0" shadow="0">
      <root>
        <mxCell id="OTCO0ICbQ22_cOyANtTK-0" />
        <mxCell id="OTCO0ICbQ22_cOyANtTK-1" parent="OTCO0ICbQ22_cOyANtTK-0" />
        <mxCell id="OTCO0ICbQ22_cOyANtTK-2" value="aluno" style="rounded=0;whiteSpace=wrap;html=1;" parent="OTCO0ICbQ22_cOyANtTK-1" vertex="1">
          <mxGeometry x="200" y="40" width="120" height="60" as="geometry" />
        </mxCell>
        <mxCell id="OTCO0ICbQ22_cOyANtTK-3" value="" style="endArrow=none;html=1;rounded=0;entryX=0;entryY=0.5;entryDx=0;entryDy=0;" parent="OTCO0ICbQ22_cOyANtTK-1" target="STbdWIsUGrlOVK0z8lOy-2" edge="1">
          <mxGeometry width="50" height="50" relative="1" as="geometry">
            <mxPoint x="320" y="70" as="sourcePoint" />
            <mxPoint x="370" y="70" as="targetPoint" />
            <Array as="points" />
          </mxGeometry>
        </mxCell>
        <mxCell id="OTCO0ICbQ22_cOyANtTK-5" value="" style="endArrow=none;html=1;rounded=0;exitX=1;exitY=0.5;exitDx=0;exitDy=0;" parent="OTCO0ICbQ22_cOyANtTK-1" source="STbdWIsUGrlOVK0z8lOy-2" edge="1">
          <mxGeometry width="50" height="50" relative="1" as="geometry">
            <mxPoint x="490" y="69.82999999999998" as="sourcePoint" />
            <mxPoint x="540" y="69.82999999999998" as="targetPoint" />
            <Array as="points" />
          </mxGeometry>
        </mxCell>
        <mxCell id="OTCO0ICbQ22_cOyANtTK-6" value="livros" style="rounded=0;whiteSpace=wrap;html=1;" parent="OTCO0ICbQ22_cOyANtTK-1" vertex="1">
          <mxGeometry x="540" y="40" width="120" height="60" as="geometry" />
        </mxCell>
        <mxCell id="OTCO0ICbQ22_cOyANtTK-7" value="" style="endArrow=none;html=1;rounded=0;entryX=0.5;entryY=1;entryDx=0;entryDy=0;" parent="OTCO0ICbQ22_cOyANtTK-1" target="OTCO0ICbQ22_cOyANtTK-6" edge="1">
          <mxGeometry width="50" height="50" relative="1" as="geometry">
            <mxPoint x="600" y="160" as="sourcePoint" />
            <mxPoint x="470" y="110" as="targetPoint" />
            <Array as="points" />
          </mxGeometry>
        </mxCell>
        <mxCell id="OTCO0ICbQ22_cOyANtTK-30" value="" style="ellipse;whiteSpace=wrap;html=1;aspect=fixed;labelBackgroundColor=#000000;fillColor=#000000;" parent="OTCO0ICbQ22_cOyANtTK-1" vertex="1">
          <mxGeometry x="690" y="65" width="10" height="10" as="geometry" />
        </mxCell>
        <mxCell id="OTCO0ICbQ22_cOyANtTK-31" value="" style="endArrow=none;html=1;rounded=0;entryX=1;entryY=0.75;entryDx=0;entryDy=0;exitX=0;exitY=0.5;exitDx=0;exitDy=0;" parent="OTCO0ICbQ22_cOyANtTK-1" source="OTCO0ICbQ22_cOyANtTK-30" edge="1">
          <mxGeometry width="50" height="50" relative="1" as="geometry">
            <mxPoint x="700" y="70" as="sourcePoint" />
            <mxPoint x="660" y="70" as="targetPoint" />
            <Array as="points">
              <mxPoint x="690" y="70" />
              <mxPoint x="680" y="70" />
            </Array>
          </mxGeometry>
        </mxCell>
        <mxCell id="OTCO0ICbQ22_cOyANtTK-32" value="" style="ellipse;whiteSpace=wrap;html=1;aspect=fixed;labelBackgroundColor=#000000;fillColor=#000000;" parent="OTCO0ICbQ22_cOyANtTK-1" vertex="1">
          <mxGeometry x="150" y="75" width="10" height="10" as="geometry" />
        </mxCell>
        <mxCell id="OTCO0ICbQ22_cOyANtTK-33" value="" style="endArrow=none;html=1;rounded=0;" parent="OTCO0ICbQ22_cOyANtTK-1" edge="1">
          <mxGeometry width="50" height="50" relative="1" as="geometry">
            <mxPoint x="180" y="80" as="sourcePoint" />
            <mxPoint x="160" y="80" as="targetPoint" />
            <Array as="points">
              <mxPoint x="180" y="80" />
              <mxPoint x="200" y="80" />
            </Array>
          </mxGeometry>
        </mxCell>
        <mxCell id="OTCO0ICbQ22_cOyANtTK-34" value="matrícula" style="text;whiteSpace=wrap;html=1;" parent="OTCO0ICbQ22_cOyANtTK-1" vertex="1">
          <mxGeometry x="90" y="65" width="50" height="25" as="geometry" />
        </mxCell>
        <mxCell id="OTCO0ICbQ22_cOyANtTK-35" value="ISBN" style="text;whiteSpace=wrap;html=1;" parent="OTCO0ICbQ22_cOyANtTK-1" vertex="1">
          <mxGeometry x="710" y="55" width="110" height="20" as="geometry" />
        </mxCell>
        <mxCell id="zRaQzTS013nZuDFAEHF5-6" value="caixas" style="rounded=0;whiteSpace=wrap;html=1;" parent="OTCO0ICbQ22_cOyANtTK-1" vertex="1">
          <mxGeometry x="540" y="280" width="120" height="60" as="geometry" />
        </mxCell>
        <mxCell id="zRaQzTS013nZuDFAEHF5-7" value="" style="endArrow=none;html=1;rounded=0;entryX=0.5;entryY=1;entryDx=0;entryDy=0;" parent="OTCO0ICbQ22_cOyANtTK-1" edge="1">
          <mxGeometry width="50" height="50" relative="1" as="geometry">
            <mxPoint x="599.66" y="280" as="sourcePoint" />
            <mxPoint x="599.66" y="220" as="targetPoint" />
            <Array as="points" />
          </mxGeometry>
        </mxCell>
        <mxCell id="STbdWIsUGrlOVK0z8lOy-2" value="disponibiliza" style="rhombus;whiteSpace=wrap;html=1;" parent="OTCO0ICbQ22_cOyANtTK-1" vertex="1">
          <mxGeometry x="390" y="30" width="80" height="80" as="geometry" />
        </mxCell>
        <mxCell id="STbdWIsUGrlOVK0z8lOy-3" value="separa" style="rhombus;whiteSpace=wrap;html=1;" parent="OTCO0ICbQ22_cOyANtTK-1" vertex="1">
          <mxGeometry x="560" y="150" width="80" height="80" as="geometry" />
        </mxCell>
        <mxCell id="dq8eWDNJpdIL6oCMlbcv-0" value="" style="ellipse;whiteSpace=wrap;html=1;aspect=fixed;labelBackgroundColor=#000000;fillColor=#FFFFFF;" parent="OTCO0ICbQ22_cOyANtTK-1" vertex="1">
          <mxGeometry x="690" y="274" width="10" height="10" as="geometry" />
        </mxCell>
        <mxCell id="dq8eWDNJpdIL6oCMlbcv-1" value="" style="endArrow=none;html=1;rounded=0;entryX=1;entryY=0;entryDx=0;entryDy=0;exitX=0;exitY=0.5;exitDx=0;exitDy=0;" parent="OTCO0ICbQ22_cOyANtTK-1" source="dq8eWDNJpdIL6oCMlbcv-0" target="zRaQzTS013nZuDFAEHF5-6" edge="1">
          <mxGeometry width="50" height="50" relative="1" as="geometry">
            <mxPoint x="700" y="275" as="sourcePoint" />
            <mxPoint x="660" y="275" as="targetPoint" />
            <Array as="points">
              <mxPoint x="690" y="280" />
            </Array>
          </mxGeometry>
        </mxCell>
        <mxCell id="vzJi0AAaJEzHNcyEOKmL-0" value="área" style="text;whiteSpace=wrap;html=1;" parent="OTCO0ICbQ22_cOyANtTK-1" vertex="1">
          <mxGeometry x="700" y="264" width="40" height="20" as="geometry" />
        </mxCell>
        <mxCell id="vzJi0AAaJEzHNcyEOKmL-1" value="" style="ellipse;whiteSpace=wrap;html=1;aspect=fixed;labelBackgroundColor=#000000;fillColor=#000000;" parent="OTCO0ICbQ22_cOyANtTK-1" vertex="1">
          <mxGeometry x="690" y="300" width="10" height="10" as="geometry" />
        </mxCell>
        <mxCell id="vzJi0AAaJEzHNcyEOKmL-2" value="" style="endArrow=none;html=1;rounded=0;entryX=1;entryY=0;entryDx=0;entryDy=0;exitX=0;exitY=0.5;exitDx=0;exitDy=0;" parent="OTCO0ICbQ22_cOyANtTK-1" source="vzJi0AAaJEzHNcyEOKmL-1" edge="1">
          <mxGeometry width="50" height="50" relative="1" as="geometry">
            <mxPoint x="700" y="301" as="sourcePoint" />
            <mxPoint x="660" y="306" as="targetPoint" />
            <Array as="points">
              <mxPoint x="690" y="306" />
            </Array>
          </mxGeometry>
        </mxCell>
        <mxCell id="vzJi0AAaJEzHNcyEOKmL-3" value="cadastro de áreas" style="text;whiteSpace=wrap;html=1;" parent="OTCO0ICbQ22_cOyANtTK-1" vertex="1">
          <mxGeometry x="700" y="290" width="110" height="20" as="geometry" />
        </mxCell>
        <mxCell id="vzJi0AAaJEzHNcyEOKmL-7" value="" style="ellipse;whiteSpace=wrap;html=1;aspect=fixed;labelBackgroundColor=#000000;fillColor=#FFFFFF;" parent="OTCO0ICbQ22_cOyANtTK-1" vertex="1">
          <mxGeometry x="150" y="60" width="10" height="10" as="geometry" />
        </mxCell>
        <mxCell id="vzJi0AAaJEzHNcyEOKmL-8" value="" style="endArrow=none;html=1;rounded=0;" parent="OTCO0ICbQ22_cOyANtTK-1" edge="1">
          <mxGeometry width="50" height="50" relative="1" as="geometry">
            <mxPoint x="180" y="65" as="sourcePoint" />
            <mxPoint x="160" y="65" as="targetPoint" />
            <Array as="points">
              <mxPoint x="180" y="65" />
              <mxPoint x="200" y="65" />
            </Array>
          </mxGeometry>
        </mxCell>
        <mxCell id="vzJi0AAaJEzHNcyEOKmL-9" value="&lt;span style=&quot;color: rgb(0, 0, 0); font-family: Helvetica; font-size: 12px; font-style: normal; font-variant-ligatures: normal; font-variant-caps: normal; font-weight: 400; letter-spacing: normal; orphans: 2; text-align: left; text-indent: 0px; text-transform: none; widows: 2; word-spacing: 0px; -webkit-text-stroke-width: 0px; background-color: rgb(251, 251, 251); text-decoration-thickness: initial; text-decoration-style: initial; text-decoration-color: initial; float: none; display: inline !important;&quot;&gt;nome&lt;/span&gt;" style="text;whiteSpace=wrap;html=1;" parent="OTCO0ICbQ22_cOyANtTK-1" vertex="1">
          <mxGeometry x="110" y="50" width="40" height="20" as="geometry" />
        </mxCell>
        <mxCell id="vzJi0AAaJEzHNcyEOKmL-11" value="" style="endArrow=none;html=1;rounded=0;" parent="OTCO0ICbQ22_cOyANtTK-1" edge="1">
          <mxGeometry width="50" height="50" relative="1" as="geometry">
            <mxPoint x="200" y="85" as="sourcePoint" />
            <mxPoint x="160" y="50" as="targetPoint" />
            <Array as="points">
              <mxPoint x="200" y="85" />
              <mxPoint x="200" y="50" />
            </Array>
          </mxGeometry>
        </mxCell>
        <mxCell id="vzJi0AAaJEzHNcyEOKmL-12" value="" style="ellipse;whiteSpace=wrap;html=1;aspect=fixed;labelBackgroundColor=#000000;fillColor=#FFFFFF;" parent="OTCO0ICbQ22_cOyANtTK-1" vertex="1">
          <mxGeometry x="150" y="45" width="10" height="10" as="geometry" />
        </mxCell>
        <mxCell id="vzJi0AAaJEzHNcyEOKmL-13" value="&lt;span style=&quot;color: rgb(0, 0, 0); font-family: Helvetica; font-size: 12px; font-style: normal; font-variant-ligatures: normal; font-variant-caps: normal; font-weight: 400; letter-spacing: normal; orphans: 2; text-align: left; text-indent: 0px; text-transform: none; widows: 2; word-spacing: 0px; -webkit-text-stroke-width: 0px; background-color: rgb(251, 251, 251); text-decoration-thickness: initial; text-decoration-style: initial; text-decoration-color: initial; float: none; display: inline !important;&quot;&gt;telefone&lt;/span&gt;" style="text;whiteSpace=wrap;html=1;" parent="OTCO0ICbQ22_cOyANtTK-1" vertex="1">
          <mxGeometry x="100" y="35" width="50" height="20" as="geometry" />
        </mxCell>
        <mxCell id="vzJi0AAaJEzHNcyEOKmL-15" value="" style="ellipse;whiteSpace=wrap;html=1;aspect=fixed;labelBackgroundColor=#000000;fillColor=#FFFFFF;" parent="OTCO0ICbQ22_cOyANtTK-1" vertex="1">
          <mxGeometry x="150" y="90" width="10" height="10" as="geometry" />
        </mxCell>
        <mxCell id="vzJi0AAaJEzHNcyEOKmL-16" value="" style="endArrow=none;html=1;rounded=0;entryX=1;entryY=0.5;entryDx=0;entryDy=0;exitX=-0.004;exitY=0.919;exitDx=0;exitDy=0;exitPerimeter=0;" parent="OTCO0ICbQ22_cOyANtTK-1" source="OTCO0ICbQ22_cOyANtTK-2" target="vzJi0AAaJEzHNcyEOKmL-15" edge="1">
          <mxGeometry width="50" height="50" relative="1" as="geometry">
            <mxPoint x="190" y="90" as="sourcePoint" />
            <mxPoint x="170" y="90" as="targetPoint" />
            <Array as="points">
              <mxPoint x="200" y="95" />
            </Array>
          </mxGeometry>
        </mxCell>
        <mxCell id="vzJi0AAaJEzHNcyEOKmL-17" value="&lt;span style=&quot;color: rgb(0, 0, 0); font-family: Helvetica; font-size: 12px; font-style: normal; font-variant-ligatures: normal; font-variant-caps: normal; font-weight: 400; letter-spacing: normal; orphans: 2; text-align: left; text-indent: 0px; text-transform: none; widows: 2; word-spacing: 0px; -webkit-text-stroke-width: 0px; background-color: rgb(251, 251, 251); text-decoration-thickness: initial; text-decoration-style: initial; text-decoration-color: initial; float: none; display: inline !important;&quot;&gt;turma&lt;/span&gt;" style="text;whiteSpace=wrap;html=1;" parent="OTCO0ICbQ22_cOyANtTK-1" vertex="1">
          <mxGeometry x="110" y="80" width="40" height="20" as="geometry" />
        </mxCell>
        <mxCell id="Vvbtk3p8-oiXsM4-88iN-0" value="" style="endArrow=none;html=1;rounded=0;" parent="OTCO0ICbQ22_cOyANtTK-1" edge="1">
          <mxGeometry width="50" height="50" relative="1" as="geometry">
            <mxPoint x="454.8" y="115" as="sourcePoint" />
            <mxPoint x="454.8" y="85" as="targetPoint" />
          </mxGeometry>
        </mxCell>
        <mxCell id="Vvbtk3p8-oiXsM4-88iN-1" value="" style="ellipse;whiteSpace=wrap;html=1;aspect=fixed;" parent="OTCO0ICbQ22_cOyANtTK-1" vertex="1">
          <mxGeometry x="450" y="105" width="10" height="10" as="geometry" />
        </mxCell>
        <mxCell id="Vvbtk3p8-oiXsM4-88iN-2" value="&lt;span style=&quot;color: rgb(0, 0, 0); font-family: Helvetica; font-size: 12px; font-style: normal; font-variant-ligatures: normal; font-variant-caps: normal; font-weight: 400; letter-spacing: normal; orphans: 2; text-align: left; text-indent: 0px; text-transform: none; widows: 2; word-spacing: 0px; -webkit-text-stroke-width: 0px; background-color: rgb(251, 251, 251); text-decoration-thickness: initial; text-decoration-style: initial; text-decoration-color: initial; float: none; display: inline !important;&quot;&gt;data do&lt;/span&gt;&lt;br style=&quot;border-color: var(--border-color); color: rgb(0, 0, 0); font-family: Helvetica; font-size: 12px; font-style: normal; font-variant-ligatures: normal; font-variant-caps: normal; font-weight: 400; letter-spacing: normal; orphans: 2; text-align: left; text-indent: 0px; text-transform: none; widows: 2; word-spacing: 0px; -webkit-text-stroke-width: 0px; background-color: rgb(251, 251, 251); text-decoration-thickness: initial; text-decoration-style: initial; text-decoration-color: initial;&quot;&gt;&lt;span style=&quot;color: rgb(0, 0, 0); font-family: Helvetica; font-size: 12px; font-style: normal; font-variant-ligatures: normal; font-variant-caps: normal; font-weight: 400; letter-spacing: normal; orphans: 2; text-align: left; text-indent: 0px; text-transform: none; widows: 2; word-spacing: 0px; -webkit-text-stroke-width: 0px; background-color: rgb(251, 251, 251); text-decoration-thickness: initial; text-decoration-style: initial; text-decoration-color: initial; float: none; display: inline !important;&quot;&gt;empréstimo&lt;/span&gt;" style="text;whiteSpace=wrap;html=1;" parent="OTCO0ICbQ22_cOyANtTK-1" vertex="1">
          <mxGeometry x="450" y="110" width="70" height="40" as="geometry" />
        </mxCell>
        <mxCell id="Vvbtk3p8-oiXsM4-88iN-5" value="" style="endArrow=none;html=1;rounded=0;" parent="OTCO0ICbQ22_cOyANtTK-1" edge="1">
          <mxGeometry width="50" height="50" relative="1" as="geometry">
            <mxPoint x="404.8" y="115" as="sourcePoint" />
            <mxPoint x="404.8" y="85" as="targetPoint" />
          </mxGeometry>
        </mxCell>
        <mxCell id="Vvbtk3p8-oiXsM4-88iN-6" value="" style="ellipse;whiteSpace=wrap;html=1;aspect=fixed;" parent="OTCO0ICbQ22_cOyANtTK-1" vertex="1">
          <mxGeometry x="400" y="105" width="10" height="10" as="geometry" />
        </mxCell>
        <mxCell id="Vvbtk3p8-oiXsM4-88iN-7" value="&lt;span style=&quot;color: rgb(0, 0, 0); font-family: Helvetica; font-size: 12px; font-style: normal; font-variant-ligatures: normal; font-variant-caps: normal; font-weight: 400; letter-spacing: normal; orphans: 2; text-align: left; text-indent: 0px; text-transform: none; widows: 2; word-spacing: 0px; -webkit-text-stroke-width: 0px; background-color: rgb(251, 251, 251); text-decoration-thickness: initial; text-decoration-style: initial; text-decoration-color: initial; float: none; display: inline !important;&quot;&gt;data da devolução&lt;/span&gt;" style="text;whiteSpace=wrap;html=1;" parent="OTCO0ICbQ22_cOyANtTK-1" vertex="1">
          <mxGeometry x="364" y="110" width="100" height="40" as="geometry" />
        </mxCell>
        <mxCell id="Vvbtk3p8-oiXsM4-88iN-8" value="" style="ellipse;whiteSpace=wrap;html=1;aspect=fixed;labelBackgroundColor=#000000;fillColor=#FFFFFF;" parent="OTCO0ICbQ22_cOyANtTK-1" vertex="1">
          <mxGeometry x="690" y="80" width="10" height="10" as="geometry" />
        </mxCell>
        <mxCell id="Vvbtk3p8-oiXsM4-88iN-9" value="" style="endArrow=none;html=1;rounded=0;entryX=1;entryY=0;entryDx=0;entryDy=0;exitX=0;exitY=1;exitDx=0;exitDy=0;" parent="OTCO0ICbQ22_cOyANtTK-1" source="Vvbtk3p8-oiXsM4-88iN-8" edge="1">
          <mxGeometry width="50" height="50" relative="1" as="geometry">
            <mxPoint x="700" y="81" as="sourcePoint" />
            <mxPoint x="660" y="86" as="targetPoint" />
            <Array as="points">
              <mxPoint x="690" y="86" />
            </Array>
          </mxGeometry>
        </mxCell>
        <mxCell id="Vvbtk3p8-oiXsM4-88iN-11" value="&lt;span style=&quot;color: rgb(0, 0, 0); font-family: Helvetica; font-size: 12px; font-style: normal; font-variant-ligatures: normal; font-variant-caps: normal; font-weight: 400; letter-spacing: normal; orphans: 2; text-align: left; text-indent: 0px; text-transform: none; widows: 2; word-spacing: 0px; -webkit-text-stroke-width: 0px; background-color: rgb(251, 251, 251); text-decoration-thickness: initial; text-decoration-style: initial; text-decoration-color: initial; float: none; display: inline !important;&quot;&gt;nome do livro&lt;/span&gt;" style="text;whiteSpace=wrap;html=1;" parent="OTCO0ICbQ22_cOyANtTK-1" vertex="1">
          <mxGeometry x="710" y="72.5" width="80" height="25" as="geometry" />
        </mxCell>
        <mxCell id="Vvbtk3p8-oiXsM4-88iN-12" value="" style="ellipse;whiteSpace=wrap;html=1;aspect=fixed;labelBackgroundColor=#000000;fillColor=#FFFFFF;" parent="OTCO0ICbQ22_cOyANtTK-1" vertex="1">
          <mxGeometry x="690" y="93" width="10" height="10" as="geometry" />
        </mxCell>
        <mxCell id="Vvbtk3p8-oiXsM4-88iN-13" value="" style="endArrow=none;html=1;rounded=0;entryX=1;entryY=0.984;entryDx=0;entryDy=0;exitX=0;exitY=1;exitDx=0;exitDy=0;entryPerimeter=0;" parent="OTCO0ICbQ22_cOyANtTK-1" source="Vvbtk3p8-oiXsM4-88iN-12" target="OTCO0ICbQ22_cOyANtTK-6" edge="1">
          <mxGeometry width="50" height="50" relative="1" as="geometry">
            <mxPoint x="700" y="96" as="sourcePoint" />
            <mxPoint x="660" y="101" as="targetPoint" />
            <Array as="points">
              <mxPoint x="690" y="99" />
            </Array>
          </mxGeometry>
        </mxCell>
        <mxCell id="Vvbtk3p8-oiXsM4-88iN-14" value="&lt;span style=&quot;color: rgb(0, 0, 0); font-family: Helvetica; font-size: 12px; font-style: normal; font-variant-ligatures: normal; font-variant-caps: normal; font-weight: 400; letter-spacing: normal; orphans: 2; text-align: left; text-indent: 0px; text-transform: none; widows: 2; word-spacing: 0px; -webkit-text-stroke-width: 0px; background-color: rgb(251, 251, 251); text-decoration-thickness: initial; text-decoration-style: initial; text-decoration-color: initial; float: none; display: inline !important;&quot;&gt;nome do autor&lt;/span&gt;" style="text;whiteSpace=wrap;html=1;" parent="OTCO0ICbQ22_cOyANtTK-1" vertex="1">
          <mxGeometry x="710" y="85.5" width="80" height="25" as="geometry" />
        </mxCell>
        <mxCell id="Vvbtk3p8-oiXsM4-88iN-15" value="&lt;span style=&quot;color: rgb(0, 0, 0); font-family: Helvetica; font-size: 12px; font-style: normal; font-variant-ligatures: normal; font-variant-caps: normal; font-weight: 400; letter-spacing: normal; orphans: 2; text-align: left; text-indent: 0px; text-transform: none; widows: 2; word-spacing: 0px; -webkit-text-stroke-width: 0px; background-color: rgb(251, 251, 251); text-decoration-thickness: initial; text-decoration-style: initial; text-decoration-color: initial; float: none; display: inline !important;&quot;&gt;editora&lt;/span&gt;" style="text;whiteSpace=wrap;html=1;" parent="OTCO0ICbQ22_cOyANtTK-1" vertex="1">
          <mxGeometry x="710" y="40" width="50" height="20" as="geometry" />
        </mxCell>
        <mxCell id="Vvbtk3p8-oiXsM4-88iN-16" value="" style="endArrow=none;html=1;rounded=0;entryX=1;entryY=0.75;entryDx=0;entryDy=0;exitX=0;exitY=0.5;exitDx=0;exitDy=0;" parent="OTCO0ICbQ22_cOyANtTK-1" edge="1">
          <mxGeometry width="50" height="50" relative="1" as="geometry">
            <mxPoint x="690" y="55" as="sourcePoint" />
            <mxPoint x="660" y="55" as="targetPoint" />
            <Array as="points">
              <mxPoint x="690" y="55" />
              <mxPoint x="680" y="55" />
            </Array>
          </mxGeometry>
        </mxCell>
        <mxCell id="Vvbtk3p8-oiXsM4-88iN-17" value="" style="ellipse;whiteSpace=wrap;html=1;aspect=fixed;labelBackgroundColor=#000000;fillColor=#FFFFFF;" parent="OTCO0ICbQ22_cOyANtTK-1" vertex="1">
          <mxGeometry x="690" y="50" width="10" height="10" as="geometry" />
        </mxCell>
        <mxCell id="Vvbtk3p8-oiXsM4-88iN-18" value="&lt;span style=&quot;color: rgb(0, 0, 0); font-family: Helvetica; font-size: 12px; font-style: normal; font-variant-ligatures: normal; font-variant-caps: normal; font-weight: 400; letter-spacing: normal; orphans: 2; text-align: left; text-indent: 0px; text-transform: none; widows: 2; word-spacing: 0px; -webkit-text-stroke-width: 0px; background-color: rgb(251, 251, 251); text-decoration-thickness: initial; text-decoration-style: initial; text-decoration-color: initial; float: none; display: inline !important;&quot;&gt;ano de publicação&lt;/span&gt;" style="text;whiteSpace=wrap;html=1;" parent="OTCO0ICbQ22_cOyANtTK-1" vertex="1">
          <mxGeometry x="710" y="25" width="100" height="20" as="geometry" />
        </mxCell>
        <mxCell id="Vvbtk3p8-oiXsM4-88iN-19" value="" style="endArrow=none;html=1;rounded=0;entryX=1;entryY=0.75;entryDx=0;entryDy=0;exitX=0;exitY=0.5;exitDx=0;exitDy=0;" parent="OTCO0ICbQ22_cOyANtTK-1" edge="1">
          <mxGeometry width="50" height="50" relative="1" as="geometry">
            <mxPoint x="690" y="40" as="sourcePoint" />
            <mxPoint x="660" y="40" as="targetPoint" />
            <Array as="points">
              <mxPoint x="690" y="40" />
              <mxPoint x="680" y="40" />
            </Array>
          </mxGeometry>
        </mxCell>
        <mxCell id="Vvbtk3p8-oiXsM4-88iN-20" value="" style="ellipse;whiteSpace=wrap;html=1;aspect=fixed;labelBackgroundColor=#000000;fillColor=#FFFFFF;" parent="OTCO0ICbQ22_cOyANtTK-1" vertex="1">
          <mxGeometry x="690" y="35" width="10" height="10" as="geometry" />
        </mxCell>
      </root>
    </mxGraphModel>
  </diagram>
  <diagram id="HxdU4gd1NGQAkmR12nxs" name="exercicio 3">
    <mxGraphModel dx="1009" dy="573" grid="1" gridSize="10" guides="1" tooltips="1" connect="1" arrows="1" fold="1" page="1" pageScale="1" pageWidth="827" pageHeight="1169" math="0" shadow="0">
      <root>
        <mxCell id="0" />
        <mxCell id="1" parent="0" />
      </root>
    </mxGraphModel>
  </diagram>
</mxfile>
